<svg width="143" height="200" fill="none" xmlns="http://www.w3.org/2000/svg"><path fill-rule="evenodd" clip-rule="evenodd" d="M0 39.379l13.384 145.003L71.387 200l58.001-15.618 13.386-145.004H0z" fill="#1758A7"/><path fill-rule="evenodd" clip-rule="evenodd" d="M71.386 51.124v136.42l.13.035 46.939-12.639 10.834-123.816H71.386z" fill="#379AD6"/><path fill-rule="evenodd" clip-rule="evenodd" d="M71.223 150.451l-.031.009-19.378-4.94-1.175-14.225H32.631l2.349 27.463 36.408 10.866v-19.22l-.165.047z" fill="#E8E8E7"/><path fill-rule="evenodd" clip-rule="evenodd" d="M71.388 104.47v17.448h.051l21.523.023-1.382 22.806-20.14 5.675-.052.014v19.169l.051.015.015.005 36.504-10.663 4.736-54.492H71.388z" fill="#FBFBFA"/><path fill-rule="evenodd" clip-rule="evenodd" d="M30.084 104.47l1.37 17.429.002.027 39.931.003V104.47H30.085z" fill="#E5E4E2"/><path fill-rule="evenodd" clip-rule="evenodd" d="M30.086 104.471h41.2l.102-.044v-17.42l-41.302 17.464z" fill="#EEE"/><path fill-rule="evenodd" clip-rule="evenodd" d="M73.802 86.16l-2.414 1.01v17.296l42.588-18.306H73.802z" fill="#fff"/><path fill-rule="evenodd" clip-rule="evenodd" d="M26.255 68.702l2.158 17.458h42.975V68.702H26.255z" fill="#E7E7E6"/><path fill-rule="evenodd" clip-rule="evenodd" d="M71.388 86.16l44.278-17.458H71.388V86.16zm.011 0h42.504l1.764-17.458L71.399 86.16z" fill="#F8F8F7"/><path fill-rule="evenodd" clip-rule="evenodd" d="M29.024 26.692H51.06v-8.618H38.468v-8.63H51.06V0H29.024v26.692zM60.477 9.444c2.948 2.949 4.486 4.36 8.75 8.624-2.492 0-8.75.01-8.75.008v8.616h22.038v-8.618l-8.803-8.63h8.803V0H60.477v9.444zM113.75 0H91.711v9.444c2.949 2.949 4.487 4.36 8.751 8.624-2.491 0-8.75.01-8.75.008v8.616h22.038v-8.618l-8.803-8.63h8.803V0z" fill="#1B1B1B"/></svg>