<svg width="200" height="200" fill="none" xmlns="http://www.w3.org/2000/svg"><path d="M200 0H0v200h200V0z" fill="#F0DB4F"/><path d="M108.84 145.982c0 19.464-11.43 28.348-28.082 28.348-15.043 0-23.749-7.767-28.214-17.186l15.313-9.242c2.946 5.224 5.625 9.643 12.098 9.643 6.16 0 10.09-2.411 10.09-11.83V81.83h18.795v64.152zm44.464 28.348c-17.455 0-28.75-8.304-34.241-19.196l15.312-8.84c4.018 6.563 9.286 11.429 18.527 11.429 7.768 0 12.767-3.884 12.767-9.285 0-6.429-5.088-8.705-13.704-12.5l-4.688-2.009c-13.571-5.759-22.545-13.036-22.545-28.348 0-14.107 10.759-24.822 27.5-24.822 11.964 0 20.536 4.152 26.696 15.045l-14.643 9.375c-3.214-5.759-6.696-8.035-12.098-8.035-5.491 0-8.973 3.483-8.973 8.035 0 5.625 3.482 7.903 11.563 11.429l4.687 2.009c15.982 6.83 24.955 13.84 24.955 29.554.001 16.874-13.303 26.159-31.115 26.159z" fill="#323330"/></svg>